# xmcd CD database file
#
# Track frame offsets:
#	150
#	44131
#	103544
#	138193
#	176263
#	202243
#
# Disc length: 3139 seconds
#
# Revision: 0
# Processed by: cddbd v1.5.2PL0 Copyright (c) Steve Scherf et al.
# Submitted via: CDex 1.51
#
DISCID=530c4106
DTITLE=Herbie Hancock - Baraka
DYEAR=2005
DGENRE=Jazz
TTITLE0=Baraka
TTITLE1=Maulana
TTITLE2=Kawaida
TTITLE3=Dunia
TTITLE4=Kamili
TTITLE5=Move To The Groove
EXTD=YEAR: 2005
EXTT0=
EXTT1=
EXTT2=
EXTT3=
EXTT4=
EXTT5=
PLAYORDER=
